<svg xmlns="http://www.w3.org/2000/svg" viewBox="0 0 64 64" fill="none" stroke="currentColor" stroke-width="3">
  <path d="M22 10h16l10 10v30a4 4 0 0 1-4 4H22a4 4 0 0 1-4-4V14a4 4 0 0 1 4-4Z" fill="#F3E9FF" stroke="#7A3CC7" stroke-linejoin="round"/>
  <path d="M38 10v10h10" stroke="#7A3CC7" stroke-linecap="round" stroke-linejoin="round"/>
  <path d="M24 26c0-1.7 1.3-3 3-3s3 1.3 3 3-1.3 3-3 3-3-1.3-3-3Z" stroke="#7A3CC7"/>
  <path d="M33 38c0-1.7 1.3-3 3-3s3 1.3 3 3-1.3 3-3 3-3-1.3-3-3Z" stroke="#7A3CC7"/>
  <path d="m26 38 12-12" stroke="#7A3CC7" stroke-linecap="round" stroke-linejoin="round"/>
</svg>
